<svg width="275" height="254" viewBox="0 0 275 254" fill="none" xmlns="http://www.w3.org/2000/svg">
<path d="M104.309 240.717C89.6529 245.91 74.8547 248.309 59.0701 245.31C41.4765 241.966 26.2165 226.91 17.594 211.895C14.3903 206.318 11.8398 200.086 12.1731 193.664C12.9485 178.829 26.9636 177.171 38.8602 179.571C45.5663 180.92 51.7239 183.992 57.8117 187.034C67.9187 192.088 79.7746 194.574 88.8359 201.579C91.8765 203.937 94.1599 206.769 97.693 208.484C103.189 211.154 109.463 212.415 115.108 214.845C119.927 216.93 125.314 220.36 125.322 225.609C125.322 230.993 119.706 234.423 114.771 236.566C111.278 238.093 107.8 239.486 104.309 240.717Z" fill="url(#paint0_linear)"/>
<path d="M50.3637 49.3619C74.3729 13.9796 124.019 -0.227089 164.261 13.0759C183.666 19.494 199.928 32.8583 214.928 46.7317C228.15 58.9592 240.976 72.1477 250.006 87.8668C256.171 98.5965 260.584 111.458 263.7 123.466C268.358 141.444 264.127 164.61 240.887 162.912C235.434 162.515 230.716 160.554 225.617 158.839C221.491 157.448 217.449 158.282 213.166 157.603C202.386 155.896 192 151.927 182.18 147.278C162.166 137.795 143.879 124.912 123.297 116.602C106.429 109.801 88.4162 106.289 70.2292 106.257C62.5566 106.244 54.489 106.781 47.6256 103.351C30.7092 94.8869 38.3164 72.0646 44.6341 59.2263C46.3079 55.8066 48.2226 52.5101 50.3637 49.3619V49.3619Z" fill="url(#paint1_linear)"/>
<path d="M238.61 54.7026C242.563 58.2826 258.093 68.0557 258.392 56.5869C258.462 53.7297 257.166 50.9555 255.403 48.8631C253.385 46.4614 251.097 45.2016 249.521 42.4036C247.593 39.0251 245.399 35.8499 242.966 32.919C237.992 26.8186 232.186 21.1821 225.14 18.6707C220.198 16.9114 211.832 17.3538 209.484 23.6872C206.065 32.9069 220.687 34.5962 225.147 37.9562C229.379 41.1365 231.776 46.6011 235.128 50.9441C236.188 52.3135 237.353 53.5717 238.61 54.7026V54.7026Z" fill="url(#paint2_linear)"/>
<path d="M165.516 43.4884C173.888 48.4177 180.168 55.796 187.802 61.7382C200.51 71.6298 217.93 73.6535 232.504 80.5325C247.364 87.5511 258.585 98.4587 263.659 114.18C270.213 134.472 270.836 158.603 265.267 179.465C259.135 202.428 244.733 217.682 223.677 227.854C202.633 238.021 179.32 242.765 156.069 243.744C153.825 243.84 151.585 243.892 149.336 243.906C98.8251 244.2 31.5913 226.42 14.3943 172.158C14.2367 171.663 14.0856 171.167 13.9341 170.664C12.1621 164.619 11.1202 158.383 10.8307 152.09C9.74903 129.78 13.6537 105.156 21.4753 84.2414C26.736 70.1611 38.0642 58.2556 50.001 49.7727C66.7722 37.8553 87.2355 34.8139 107.602 33.384C122.684 32.3258 139.646 31.9392 153.908 37.708C157.916 39.3421 161.796 41.2743 165.516 43.4884Z" fill="url(#paint3_linear)"/>
<path d="M187.878 98.9624C187.878 98.9624 187.199 108.555 186.247 122.069C185.499 132.679 184.577 145.707 183.668 158.434C183.448 161.558 183.218 164.656 183.002 167.698C182.483 175.049 181.981 182.056 181.532 188.144C181.138 193.263 180.8 197.746 180.544 201.224C180.202 205.681 179.973 208.507 179.887 208.996C179.389 212.228 169.878 218.503 147.969 218.503C126.07 218.503 113.327 218.844 109.087 213.587C108.451 212.786 107.679 209.675 106.836 204.946C105.002 194.677 102.8 176.815 100.817 158.788C99.5802 147.594 98.4119 136.348 97.4602 126.798C95.9801 112.017 94.989 101.342 94.989 101.342L121.601 100.662L155.439 99.7927L187.878 98.9624Z" fill="#FB4C47"/>
<path d="M186.25 122.07C185.501 132.679 184.579 145.708 183.67 158.434C175.193 160.732 150.078 165.392 100.819 158.789C99.5822 147.595 98.4139 136.348 97.4622 126.799C110.425 128.292 152.412 131.974 186.25 122.07Z" fill="#D9423D"/>
<path d="M180.543 201.225C180.202 205.679 179.972 208.507 179.89 208.996C179.388 212.229 169.878 218.504 147.969 218.504C126.07 218.504 113.33 218.845 109.09 213.588C108.45 212.783 107.679 209.676 106.836 204.947C118.397 207.027 150.916 211.343 180.543 201.225Z" fill="#D9423D"/>
<path d="M190.757 100.159C189.238 101.843 176.849 107.628 143.051 109.315C139.887 109.476 136.829 109.558 133.937 109.571C108.481 109.775 93.7656 105.131 93.467 104.235C93.1289 103.201 92.4496 96.4082 93.3062 95.5681L93.3193 95.555C94.1364 94.8593 103.834 99.8475 131.735 99.0303C135.175 98.9352 138.88 98.7448 142.887 98.4462C175.72 96.0144 186.248 91.0032 188.936 90.8391C189.251 90.8129 189.454 90.8523 189.579 90.977C190.757 92.1715 192.293 98.4462 190.757 100.159Z" fill="#FF807C"/>
<path d="M188.898 91.655C187.717 96.082 153.403 104.234 136.597 103.879C135.252 103.853 133.827 103.814 132.347 103.732C115.394 102.957 91.2665 99.4655 93.3044 95.5668L93.3176 95.5537C93.5342 95.2124 100.331 85.2293 127.402 82.4858C129.046 82.3217 130.769 82.1872 132.564 82.0789C133.499 82.01 134.451 81.9673 135.429 81.9148C135.606 81.9148 135.783 81.9148 135.96 81.9017C136.938 81.859 137.943 81.8327 138.976 81.8196C140.171 81.7934 141.339 81.7802 142.478 81.7802C175.039 81.5472 188.366 86.6963 188.937 90.8378C188.977 91.1233 188.967 91.3957 188.898 91.655Z" fill="#C63F3B"/>
<path d="M150.592 102.733C150.057 103.621 147.198 104.403 143.896 104.807C140.645 105.207 136.942 105.224 134.605 104.597C133.552 104.319 132.77 103.92 132.423 103.377C132.235 103.082 131.959 102.262 131.613 101.046C131.007 98.9556 130.175 95.6827 129.259 91.9009C129.155 91.4507 129.038 90.9964 128.929 90.5253C128.382 88.262 127.809 85.8263 127.22 83.3864C126.856 81.8552 126.472 80.3239 126.112 78.8095C125.903 77.9555 125.698 77.1184 125.506 76.3023C124.762 73.286 124.052 70.4507 123.412 68.0991C122.601 65.0492 121.908 62.786 121.439 61.9362C121.335 61.7596 121.247 61.6376 121.18 61.5871C121.076 61.5156 120.921 61.4819 120.7 61.4483C119.471 61.2548 116.495 61.4483 112.997 61.7091C105.971 62.2307 96.9053 63.0132 96.0944 61.3599C95.5929 60.3335 95.2125 58.0703 95.1122 55.563C94.9199 51.6592 95.3839 47.2042 96.9596 46.1399C98.1549 45.3407 105.005 44.5414 112.478 44.188C116.357 44.0324 120.403 43.9819 123.914 44.1207C128.382 44.2932 131.976 44.7643 133.289 45.6856C133.861 46.0895 134.588 47.3262 135.437 49.173C136.649 51.8022 138.083 55.6472 139.587 60.1231C140.469 62.807 141.389 65.6971 142.308 68.6544C143.203 71.5991 144.084 74.6112 144.92 77.5895C145.058 78.0397 145.175 78.4772 145.297 78.9315C145.455 79.5036 145.631 80.0799 145.786 80.652C146.321 82.6208 146.839 84.5559 147.324 86.3984C147.616 87.5132 147.892 88.5775 148.135 89.6208C148.807 92.25 149.363 94.6184 149.798 96.604C150.504 100.032 150.835 102.317 150.592 102.733Z" fill="#F5C827"/>
<path d="M149.581 96.4313L141.904 98.2344L131.237 100.729C130.63 98.7066 129.791 95.54 128.868 91.8808L139.252 88.8485L147.085 86.557C148.114 90.3301 148.97 93.7531 149.581 96.4313Z" fill="#FFAE00"/>
<path d="M145.22 78.6666C143.045 79.2245 140.231 79.9654 137.363 80.6845C133.658 81.6433 129.866 82.6152 127.296 83.2864C126.936 81.6956 126.554 80.1092 126.194 78.5402C125.986 77.6555 125.788 76.7882 125.597 75.9427L134.86 71.5408L142.253 68.0237C143.144 71.0701 144.019 74.1907 144.843 77.2763C144.98 77.747 145.1 78.1959 145.22 78.6666Z" fill="#FFAE00"/>
<path d="M139.768 60.2151L132.383 63.7117L123.249 68.0238C122.421 65.0379 121.712 62.8221 121.234 61.9902L129.272 54.964L135.529 49.4905C136.767 52.0646 138.231 55.833 139.768 60.2151Z" fill="#FFAE00"/>
<path d="M123.414 44.1193C122.999 46.528 122.493 49.4848 121.931 52.5621C121.401 55.4816 120.856 58.4883 120.345 61.2251C119.178 61.034 116.341 61.2251 113.006 61.4825L112.775 53.1435L112.512 44.1899C116.205 44.0321 120.067 43.9822 123.414 44.1193Z" fill="#FFAE00"/>
<g opacity="0.309998">
<g opacity="0.309998">
<path opacity="0.309998" d="M150.206 89.0692C158.404 89.4302 166.516 90.3392 174.589 91.8258C177.152 92.2984 178.252 88.3735 175.672 87.8976C167.242 86.3421 158.768 85.3707 150.206 84.9933C147.584 84.8784 147.591 88.9543 150.206 89.0692Z" fill="white"/>
</g>
</g>
<g opacity="0.300003">
<g opacity="0.300003">
<path opacity="0.300003" d="M175.647 119.715C175.181 134.598 174.232 149.448 172.808 164.268C172.555 166.877 176.635 166.86 176.881 164.268C178.311 149.448 179.257 134.598 179.723 119.715C179.805 117.093 175.729 117.093 175.647 119.715Z" fill="#FFC7D3"/>
</g>
<g opacity="0.300003">
<path opacity="0.300003" d="M174.704 175.57C177.326 175.57 177.33 171.494 174.704 171.494C172.082 171.494 172.075 175.57 174.704 175.57Z" fill="#FFC7D3"/>
</g>
</g>
<defs>
<linearGradient id="paint0_linear" x1="10.8721" y1="195.712" x2="26.0782" y2="248.511" gradientUnits="userSpaceOnUse">
<stop stop-color="#FFD0D0"/>
<stop offset="1" stop-color="#FFF7F7"/>
</linearGradient>
<linearGradient id="paint1_linear" x1="294.898" y1="54.5159" x2="124.706" y2="15.2162" gradientUnits="userSpaceOnUse">
<stop stop-color="#FFF7F7"/>
<stop offset="1" stop-color="#FFD0D0"/>
</linearGradient>
<linearGradient id="paint2_linear" x1="258.795" y1="56.3858" x2="200.404" y2="31.446" gradientUnits="userSpaceOnUse">
<stop stop-color="#FFD0D0"/>
<stop offset="1" stop-color="#FFFBFC"/>
</linearGradient>
<linearGradient id="paint3_linear" x1="245.613" y1="220.85" x2="10.8786" y2="84.9166" gradientUnits="userSpaceOnUse">
<stop stop-color="#FFCFCF"/>
<stop offset="1" stop-color="#FFF8F8"/>
</linearGradient>
</defs>
</svg>
