<svg width="277" height="77" viewBox="0 0 277 77" fill="none" xmlns="http://www.w3.org/2000/svg">
<g filter="url(#filter0_d)">
<path d="M31.0625 50.75C31.8333 50.75 32.6146 50.5312 33.4062 50.0938C34.2188 49.6354 35 49.0208 35.75 48.25C36.5208 47.4583 37.25 46.5312 37.9375 45.4688C38.625 44.4062 39.25 43.2708 39.8125 42.0625C40.3958 40.8333 40.8854 39.5625 41.2812 38.25C41.6979 36.9167 42.0104 35.5833 42.2188 34.25C42.2604 32.3125 42.3542 30.3958 42.5 28.5C42.6667 26.5833 42.8438 24.8438 43.0312 23.2812C43.2604 21.4688 43.5 19.7292 43.75 18.0625L48.7188 16.7188C48.4688 18.5521 48.2396 20.625 48.0312 22.9375C47.8646 24.9167 47.7083 27.2604 47.5625 29.9688C47.4375 32.6771 47.375 35.6562 47.375 38.9062C47.375 41.5312 47.5417 43.7292 47.875 45.5C48.2292 47.25 48.6979 48.6667 49.2812 49.75C49.8854 50.8125 50.5729 51.5729 51.3438 52.0312C52.1354 52.4688 52.9688 52.6875 53.8438 52.6875C54.9688 52.6875 56.0104 52.3438 56.9688 51.6562C57.9479 50.9688 58.8229 50.0104 59.5938 48.7812C60.3854 47.5521 61.0833 46.1042 61.6875 44.4375C62.2917 42.75 62.8021 40.9167 63.2188 38.9375C63.6354 36.9583 63.9479 34.875 64.1562 32.6875C64.3646 30.5 64.4688 28.2917 64.4688 26.0625C64.4688 23.1458 64.3438 20.5729 64.0938 18.3438C63.8646 16.0938 63.5417 14.1458 63.125 12.5C62.7292 10.8542 62.2604 9.47917 61.7188 8.375C61.1771 7.27083 60.6042 6.38542 60 5.71875C59.4167 5.03125 58.8125 4.55208 58.1875 4.28125C57.5625 3.98958 56.9688 3.84375 56.4062 3.84375C55.8021 3.84375 55.25 3.95833 54.75 4.1875C54.25 4.39583 53.7917 4.66667 53.375 5C52.9792 5.33333 52.6146 5.6875 52.2812 6.0625C51.9688 6.41667 51.7083 6.75 51.5 7.0625L50.0625 6.21875C50.3125 5.82292 50.6875 5.32292 51.1875 4.71875C51.7083 4.09375 52.3229 3.5 53.0312 2.9375C53.7604 2.35417 54.5729 1.86458 55.4688 1.46875C56.3854 1.05208 57.3646 0.84375 58.4062 0.84375C59.9271 0.84375 61.2708 1.35417 62.4375 2.375C63.625 3.39583 64.6146 4.84375 65.4062 6.71875C66.2188 8.59375 66.8333 10.8438 67.25 13.4688C67.6667 16.0938 67.875 19.0104 67.875 22.2188C67.875 24.8854 67.7396 27.5417 67.4688 30.1875C67.2188 32.8125 66.8333 35.3229 66.3125 37.7188C65.7917 40.1146 65.1354 42.3438 64.3438 44.4062C63.5521 46.4688 62.625 48.2604 61.5625 49.7812C60.5 51.2812 59.3021 52.4583 57.9688 53.3125C56.6354 54.1667 55.1562 54.5938 53.5312 54.5938C52.0938 54.5938 50.7604 54.3021 49.5312 53.7188C48.3229 53.1354 47.25 52.2708 46.3125 51.125C45.375 49.9583 44.5833 48.5208 43.9375 46.8125C43.2917 45.0833 42.8229 43.0938 42.5312 40.8438C41.9271 42.4271 41.1875 43.9583 40.3125 45.4375C39.4375 46.8958 38.4583 48.1875 37.375 49.3125C36.2917 50.4375 35.125 51.3333 33.875 52C32.625 52.6667 31.3229 53 29.9688 53C28.7188 53 27.5104 52.8021 26.3438 52.4062C25.1771 51.9896 24.1354 51.2917 23.2188 50.3125C22.3229 49.3333 21.6042 48.0312 21.0625 46.4062C20.5208 44.7604 20.25 42.7083 20.25 40.25C20.25 38.3542 20.4271 36.4375 20.7812 34.5C21.1354 32.5417 21.5833 30.5938 22.125 28.6562C22.6667 26.7188 23.25 24.8021 23.875 22.9062C24.5 21.0104 25.0833 19.1667 25.625 17.375C26.1667 15.5833 26.6146 13.8646 26.9688 12.2188C27.3229 10.5729 27.5 9.02083 27.5 7.5625C27.5 5.66667 27.1146 4.29167 26.3438 3.4375C25.5938 2.5625 24.5625 2.125 23.25 2.125C21.7917 2.125 20.3958 2.45833 19.0625 3.125C17.75 3.77083 16.5208 4.64583 15.375 5.75C14.25 6.85417 13.2188 8.13542 12.2812 9.59375C11.3646 11.0312 10.5833 12.5521 9.9375 14.1562C9.29167 15.7604 8.79167 17.3854 8.4375 19.0312C8.08333 20.6771 7.90625 22.25 7.90625 23.75C7.90625 27.8958 9.14583 29.9688 11.625 29.9688C12.4167 29.9688 13.2083 29.7292 14 29.25C14.7917 28.75 15.5417 28.0625 16.25 27.1875C16.9583 26.3125 17.6042 25.2708 18.1875 24.0625C18.7708 22.8333 19.2708 21.4896 19.6875 20.0312L21.0312 20.6875C20.8229 21.3333 20.5521 22.0521 20.2188 22.8438C19.9062 23.6146 19.5312 24.4062 19.0938 25.2188C18.6562 26.0312 18.1562 26.8229 17.5938 27.5938C17.0312 28.3438 16.4062 29.0208 15.7188 29.625C15.0312 30.2083 14.2708 30.6771 13.4375 31.0312C12.625 31.3854 11.7396 31.5625 10.7812 31.5625C8.76042 31.5625 7.14583 30.8854 5.9375 29.5312C4.72917 28.1562 4.125 26.1042 4.125 23.375C4.125 21.5625 4.40625 19.7396 4.96875 17.9062C5.51042 16.0729 6.26042 14.3125 7.21875 12.625C8.17708 10.9375 9.30208 9.35417 10.5938 7.875C11.8854 6.39583 13.2708 5.11458 14.75 4.03125C16.2292 2.94792 17.7604 2.09375 19.3438 1.46875C20.9479 0.84375 22.5312 0.53125 24.0938 0.53125C25.3854 0.53125 26.5521 0.697917 27.5938 1.03125C28.6354 1.36458 29.5104 1.88542 30.2188 2.59375C30.9479 3.30208 31.5 4.19792 31.875 5.28125C32.2708 6.36458 32.4688 7.65625 32.4688 9.15625C32.4688 10.6354 32.3021 12.2396 31.9688 13.9688C31.6562 15.6979 31.25 17.5104 30.75 19.4062C30.2708 21.2812 29.7396 23.2188 29.1562 25.2188C28.5938 27.1979 28.0625 29.1979 27.5625 31.2188C27.0833 33.2188 26.6771 35.2083 26.3438 37.1875C26.0312 39.1458 25.875 41.0417 25.875 42.875C25.875 44.2917 25.9896 45.5 26.2188 46.5C26.4479 47.5 26.7812 48.3125 27.2188 48.9375C27.6562 49.5625 28.1979 50.0208 28.8438 50.3125C29.4896 50.6042 30.2292 50.75 31.0625 50.75ZM97.1562 39.875L96.8125 40.5312C96.1042 41.9479 95.1562 43.0833 93.9688 43.9375C92.8021 44.7708 91.5312 45.3125 90.1562 45.5625C89.7812 46.625 89.2917 47.6146 88.6875 48.5312C88.1042 49.4271 87.4271 50.2083 86.6562 50.875C85.9062 51.5417 85.0521 52.0625 84.0938 52.4375C83.1562 52.8125 82.1354 53 81.0312 53C79.4271 53 77.9792 52.6667 76.6875 52C75.4167 51.3125 74.3333 50.3958 73.4375 49.25C72.5417 48.0833 71.8542 46.7292 71.375 45.1875C70.8958 43.625 70.6562 41.9583 70.6562 40.1875C70.6562 38.6458 70.8333 37.25 71.1875 36C71.5417 34.7292 71.9896 33.6042 72.5312 32.625C73.0729 31.625 73.6771 30.7604 74.3438 30.0312C75.0104 29.2812 75.6667 28.6667 76.3125 28.1875C76.9583 27.7083 77.5417 27.3542 78.0625 27.125C78.6042 26.875 79.0104 26.75 79.2812 26.75L79.6875 27.8438C78.8333 28.4688 78.0729 29.3438 77.4062 30.4688C76.8229 31.4271 76.2917 32.6979 75.8125 34.2812C75.3542 35.8646 75.125 37.8333 75.125 40.1875C75.125 41.625 75.2604 43.0208 75.5312 44.375C75.8021 45.7292 76.1979 46.9271 76.7188 47.9688C77.2396 49.0104 77.875 49.8438 78.625 50.4688C79.3958 51.0938 80.2604 51.4062 81.2188 51.4062C82.5312 51.4062 83.6146 50.8854 84.4688 49.8438C85.3438 48.7812 85.9896 47.3333 86.4062 45.5C85.3229 45.2708 84.2917 44.8438 83.3125 44.2188C82.3333 43.5938 81.4688 42.8229 80.7188 41.9062C79.9688 40.9688 79.3646 39.8958 78.9062 38.6875C78.4688 37.4792 78.25 36.1667 78.25 34.75C78.25 33.5833 78.3958 32.5625 78.6875 31.6875C79 30.7917 79.4062 30.0521 79.9062 29.4688C80.4062 28.8646 80.9792 28.4167 81.625 28.125C82.2917 27.8125 82.9896 27.6562 83.7188 27.6562C84.5729 27.6562 85.4479 27.9062 86.3438 28.4062C87.2396 28.8854 88.0521 29.6146 88.7812 30.5938C89.5104 31.5521 90.1042 32.7604 90.5625 34.2188C91.0208 35.6771 91.25 37.375 91.25 39.3125C91.25 40.0417 91.2083 40.7604 91.125 41.4688C91.0417 42.1771 90.9167 42.8646 90.75 43.5312C91.75 43.2396 92.6562 42.7708 93.4688 42.125C94.3021 41.4792 94.9896 40.625 95.5312 39.5625L95.875 38.9062L97.1562 39.875ZM80.3125 34.5C80.3125 35.7292 80.4792 36.8646 80.8125 37.9062C81.1667 38.9271 81.6354 39.8333 82.2188 40.625C82.8021 41.3958 83.4792 42.0417 84.25 42.5625C85.0208 43.0833 85.8438 43.4479 86.7188 43.6562C86.8229 43.0729 86.8854 42.4688 86.9062 41.8438C86.9479 41.1979 86.9688 40.5417 86.9688 39.875C86.9688 38.3958 86.8542 37.0625 86.625 35.875C86.3958 34.6667 86.0938 33.6458 85.7188 32.8125C85.3438 31.9583 84.9062 31.3021 84.4062 30.8438C83.9062 30.3854 83.3958 30.1562 82.875 30.1562C82.1667 30.1562 81.5625 30.5417 81.0625 31.3125C80.5625 32.0625 80.3125 33.125 80.3125 34.5ZM95.5938 39.5625L95.9062 38.9062C96.2188 38.2812 96.5 37.6354 96.75 36.9688C97.0208 36.3021 97.25 35.6771 97.4375 35.0938C97.625 34.4896 97.7708 33.9583 97.875 33.5C97.9792 33.0208 98.0521 32.6562 98.0938 32.4062C97.5521 32.3438 97.0312 32.2083 96.5312 32C96.0312 31.7917 95.5938 31.5104 95.2188 31.1562C94.8438 30.8021 94.5521 30.3854 94.3438 29.9062C94.1146 29.4271 94 28.8854 94 28.2812C94 27.8021 94.0833 27.375 94.25 27C94.4167 26.625 94.6458 26.3125 94.9375 26.0625C95.2083 25.8125 95.5208 25.625 95.875 25.5C96.2083 25.3542 96.5625 25.2812 96.9375 25.2812C97.4375 25.2812 97.875 25.3854 98.25 25.5938C98.625 25.8021 98.9375 26.0833 99.1875 26.4375C99.4375 26.7708 99.625 27.1667 99.75 27.625C99.875 28.0625 99.9375 28.5208 99.9375 29C100.521 29 101.146 28.9167 101.812 28.75C102.5 28.5833 103.188 28.4062 103.875 28.2188C104.562 28.0104 105.24 27.8229 105.906 27.6562C106.573 27.4896 107.188 27.4062 107.75 27.4062C108.229 27.4062 108.615 27.5104 108.906 27.7188C109.198 27.9062 109.344 28.2292 109.344 28.6875C109.344 29.0208 109.24 29.5729 109.031 30.3438C108.844 31.1146 108.604 32.0104 108.312 33.0312C108.021 34.0521 107.698 35.1667 107.344 36.375C107.01 37.5625 106.698 38.7708 106.406 40C106.115 41.2083 105.865 42.3854 105.656 43.5312C105.469 44.6771 105.375 45.6979 105.375 46.5938C105.375 47.7188 105.5 48.4792 105.75 48.875C106 49.2708 106.448 49.4688 107.094 49.4688C107.365 49.4688 107.698 49.3542 108.094 49.125C108.51 48.875 109.01 48.4062 109.594 47.7188C110.177 47.0104 110.865 46.0104 111.656 44.7188C112.469 43.4062 113.406 41.6875 114.469 39.5625L114.781 38.9062L116.062 39.875L115.75 40.5312C114.5 43.0312 113.385 45.0833 112.406 46.6875C111.427 48.2917 110.521 49.5625 109.688 50.5C108.875 51.4375 108.104 52.0938 107.375 52.4688C106.646 52.8229 105.917 53 105.188 53C103.958 53 102.958 52.5312 102.188 51.5938C101.417 50.6562 101.031 49.2083 101.031 47.25C101.031 46.1875 101.177 45.0833 101.469 43.9375C101.76 42.7917 102.125 41.6562 102.562 40.5312C103 39.3854 103.49 38.2604 104.031 37.1562C104.573 36.0521 105.083 35.0104 105.562 34.0312C106.062 33.0312 106.51 32.1042 106.906 31.25C107.302 30.3958 107.583 29.6458 107.75 29L107.562 28.8125C107.229 28.8125 106.781 28.9896 106.219 29.3438C105.656 29.6979 105.021 30.1042 104.312 30.5625C103.625 31 102.885 31.4167 102.094 31.8125C101.302 32.2083 100.5 32.4479 99.6875 32.5312C99.6458 32.8229 99.5521 33.25 99.4062 33.8125C99.2812 34.375 99.1042 35 98.875 35.6875C98.6458 36.375 98.3854 37.0833 98.0938 37.8125C97.8021 38.5417 97.5 39.2292 97.1875 39.875L96.875 40.5312L95.5938 39.5625ZM97.125 27.0312C96.9375 27.0312 96.7812 27.0938 96.6562 27.2188C96.5312 27.3438 96.4688 27.4896 96.4688 27.6562C96.4688 27.9062 96.5312 28.125 96.6562 28.3125C96.7812 28.4792 96.9375 28.625 97.125 28.75C97.3125 28.8542 97.5 28.9375 97.6875 29C97.8958 29.0417 98.0729 29.0625 98.2188 29.0625C98.2188 28.4792 98.125 28 97.9375 27.625C97.75 27.2292 97.4792 27.0312 97.125 27.0312ZM141.219 39.875L140.906 40.5312C140.031 42.2812 139.198 43.9167 138.406 45.4375C137.615 46.9583 136.823 48.2812 136.031 49.4062C135.24 50.5312 134.427 51.4167 133.594 52.0625C132.781 52.6875 131.906 53 130.969 53C130.031 53 129.115 52.75 128.219 52.25C127.323 51.75 126.427 51.0521 125.531 50.1562C124.656 49.2604 123.771 48.2188 122.875 47.0312C122 45.8229 121.094 44.5104 120.156 43.0938L119.062 43.2812C119.021 45.1146 118.958 46.7708 118.875 48.25C118.792 49.7083 118.688 50.9062 118.562 51.8438C118.5 52.2604 118.323 52.5625 118.031 52.75C117.76 52.9167 117.385 53 116.906 53C116.344 53 115.875 52.9271 115.5 52.7812C115.125 52.6354 114.833 52.4583 114.625 52.25C114.396 52.0208 114.24 51.7812 114.156 51.5312C114.052 51.2604 114 51 114 50.75C114 49.4167 114.219 47.7604 114.656 45.7812V29.625C114.656 25.625 114.865 22.1667 115.281 19.25C115.698 16.3125 116.26 13.8854 116.969 11.9688C117.677 10.0312 118.5 8.60417 119.438 7.6875C120.396 6.75 121.406 6.28125 122.469 6.28125C123.615 6.28125 124.427 6.65625 124.906 7.40625C125.406 8.13542 125.656 9.14583 125.656 10.4375C125.656 11.5625 125.49 13.0104 125.156 14.7812C124.823 16.5312 124.354 18.4583 123.75 20.5625C123.167 22.6667 122.479 24.8646 121.688 27.1562C120.896 29.4271 120.042 31.6458 119.125 33.8125V34.5C119.708 33.5625 120.385 32.6667 121.156 31.8125C121.948 30.9583 122.792 30.2083 123.688 29.5625C124.583 28.8958 125.5 28.375 126.438 28C127.396 27.6042 128.333 27.4062 129.25 27.4062C130.062 27.4062 130.802 27.5208 131.469 27.75C132.156 27.9792 132.75 28.3125 133.25 28.75C133.75 29.1875 134.135 29.7396 134.406 30.4062C134.677 31.0521 134.812 31.8021 134.812 32.6562C134.812 33.5312 134.615 34.4062 134.219 35.2812C133.844 36.1562 133.24 37 132.406 37.8125C131.594 38.625 130.542 39.3958 129.25 40.125C127.958 40.8333 126.396 41.4583 124.562 42C124.688 42.1875 124.896 42.5 125.188 42.9375C125.479 43.375 125.823 43.875 126.219 44.4375C126.635 44.9792 127.083 45.5521 127.562 46.1562C128.042 46.7396 128.531 47.2812 129.031 47.7812C129.552 48.2604 130.062 48.6667 130.562 49C131.062 49.3125 131.521 49.4688 131.938 49.4688C132.5 49.4688 133.073 49.2396 133.656 48.7812C134.24 48.3021 134.844 47.6354 135.469 46.7812C136.115 45.9062 136.781 44.8646 137.469 43.6562C138.156 42.4271 138.875 41.0625 139.625 39.5625L139.938 38.9062L141.219 39.875ZM119.125 37.1875C119.125 37.6667 119.115 38.0938 119.094 38.4688C119.094 38.8229 119.094 39.1771 119.094 39.5312C119.094 39.8646 119.083 40.2083 119.062 40.5625C119.062 40.9167 119.062 41.3125 119.062 41.75C121.188 41.4375 122.979 41.0208 124.438 40.5C125.917 39.9792 127.115 39.375 128.031 38.6875C128.948 38 129.615 37.25 130.031 36.4375C130.448 35.6042 130.656 34.7292 130.656 33.8125C130.656 33.3333 130.573 32.875 130.406 32.4375C130.26 31.9792 130.042 31.5833 129.75 31.25C129.458 30.8958 129.094 30.6146 128.656 30.4062C128.24 30.1979 127.771 30.0938 127.25 30.0938C126.521 30.0938 125.781 30.2917 125.031 30.6875C124.302 31.0625 123.573 31.5729 122.844 32.2188C122.135 32.8646 121.458 33.625 120.812 34.5C120.188 35.3542 119.625 36.25 119.125 37.1875ZM121.875 7.875C121.438 7.875 121.052 8.30208 120.719 9.15625C120.406 10.0104 120.135 11.3438 119.906 13.1562C119.677 14.9479 119.49 17.2396 119.344 20.0312C119.198 22.8021 119.083 26.1146 119 29.9688C119.875 27.6562 120.583 25.4896 121.125 23.4688C121.667 21.4271 122.083 19.5938 122.375 17.9688C122.688 16.3229 122.896 14.8958 123 13.6875C123.104 12.4583 123.156 11.4792 123.156 10.75C123.156 9.64583 123.052 8.89583 122.844 8.5C122.656 8.08333 122.333 7.875 121.875 7.875ZM158.219 42.125C158.219 43.5417 158 44.9062 157.562 46.2188C157.146 47.5104 156.521 48.6667 155.688 49.6875C154.875 50.6875 153.854 51.4896 152.625 52.0938C151.417 52.6979 150.031 53 148.469 53C147.344 53 146.333 52.8229 145.438 52.4688C144.562 52.0938 143.812 51.6042 143.188 51C142.562 50.375 142.083 49.6771 141.75 48.9062C141.417 48.1146 141.25 47.3021 141.25 46.4688C141.25 45.6354 141.406 44.8646 141.719 44.1562C142.052 43.4271 142.49 42.8125 143.031 42.3125C143.594 41.7917 144.229 41.3854 144.938 41.0938C145.646 40.8021 146.396 40.6562 147.188 40.6562C147.688 40.6562 148.208 40.7188 148.75 40.8438V41.75C148.083 41.75 147.427 41.8854 146.781 42.1562C146.156 42.4271 145.594 42.8021 145.094 43.2812C144.615 43.7396 144.229 44.3021 143.938 44.9688C143.646 45.6146 143.5 46.3125 143.5 47.0625C143.5 48.4375 143.969 49.5417 144.906 50.375C145.865 51.1875 147.167 51.5938 148.812 51.5938C149.646 51.5938 150.406 51.4375 151.094 51.125C151.781 50.7917 152.365 50.3438 152.844 49.7812C153.344 49.1979 153.719 48.5104 153.969 47.7188C154.24 46.9271 154.375 46.0625 154.375 45.125C154.375 44.2292 154.198 43.3958 153.844 42.625C153.49 41.8542 153.021 41.125 152.438 40.4375C151.854 39.75 151.188 39.1042 150.438 38.5C149.708 37.8958 148.958 37.3229 148.188 36.7812C147.438 36.2188 146.698 35.6771 145.969 35.1562C145.24 34.6354 144.604 34.1146 144.062 33.5938L140.938 40.5312L139.656 39.5625L142.844 32.5938C142.073 31.8646 141.5 31.1771 141.125 30.5312C140.771 29.8646 140.594 29.0729 140.594 28.1562C140.594 27.6562 140.677 27.1875 140.844 26.75C141.031 26.2917 141.271 25.9062 141.562 25.5938C141.875 25.2604 142.229 25 142.625 24.8125C143.021 24.625 143.438 24.5312 143.875 24.5312C144.667 24.5312 145.26 24.7604 145.656 25.2188C146.052 25.6562 146.25 26.2083 146.25 26.875C146.25 27.1875 146.219 27.5208 146.156 27.875C146.094 28.2083 146.01 28.5521 145.906 28.9062C145.823 29.2396 145.729 29.5521 145.625 29.8438C145.542 30.1354 145.469 30.3854 145.406 30.5938C146.031 31.0729 146.781 31.5417 147.656 32C148.531 32.4375 149.438 32.8958 150.375 33.375C151.333 33.8542 152.281 34.375 153.219 34.9375C154.156 35.5 154.99 36.125 155.719 36.8125C156.469 37.5 157.073 38.2812 157.531 39.1562C157.99 40.0312 158.219 41.0208 158.219 42.125ZM143.938 25.9375C143.646 25.9375 143.406 26.0417 143.219 26.25C143.052 26.4375 142.969 26.6979 142.969 27.0312C142.969 27.4062 143.062 27.8229 143.25 28.2812C143.438 28.7396 143.771 29.1875 144.25 29.625C144.458 29.1875 144.615 28.7604 144.719 28.3438C144.844 27.9271 144.906 27.5104 144.906 27.0938C144.906 26.7604 144.812 26.4896 144.625 26.2812C144.458 26.0521 144.229 25.9375 143.938 25.9375ZM164.875 33.2812C165.229 32.5104 165.656 31.7708 166.156 31.0625C166.656 30.3542 167.229 29.7292 167.875 29.1875C168.521 28.6458 169.24 28.2188 170.031 27.9062C170.823 27.5729 171.688 27.4062 172.625 27.4062C173.875 27.4062 174.979 27.7083 175.938 28.3125C176.896 28.8958 177.698 29.6875 178.344 30.6875C178.99 31.6667 179.479 32.8125 179.812 34.125C180.146 35.4167 180.312 36.7604 180.312 38.1562C180.312 40.3021 180.094 42.2396 179.656 43.9688C179.24 45.6771 178.667 47.1771 177.938 48.4688C179.062 47.6146 180.198 46.4792 181.344 45.0625C182.51 43.6458 183.656 41.8125 184.781 39.5625L185.094 38.9062L186.375 39.875L186.062 40.5312C185.104 42.4479 184.052 44.1771 182.906 45.7188C181.76 47.2604 180.542 48.5729 179.25 49.6562C177.979 50.7188 176.646 51.5417 175.25 52.125C173.854 52.7083 172.427 53 170.969 53C169.677 53 168.479 52.7188 167.375 52.1562C166.292 51.5938 165.458 50.8958 164.875 50.0625V64.8438C164.875 65.6354 164.812 66.2917 164.688 66.8125C164.583 67.3542 164.396 67.7812 164.125 68.0938C163.875 68.4271 163.531 68.6562 163.094 68.7812C162.656 68.9271 162.125 69 161.5 69C161.021 69 160.688 68.9167 160.5 68.75C160.312 68.6042 160.219 68.3646 160.219 68.0312C160.219 67.8854 160.24 67.625 160.281 67.25C160.323 66.875 160.365 66.3021 160.406 65.5312C160.448 64.7812 160.49 63.7812 160.531 62.5312C160.573 61.3021 160.594 59.7292 160.594 57.8125V40.5312C160.594 38.2188 160.583 36.375 160.562 35C160.542 33.6042 160.521 32.5208 160.5 31.75C160.479 30.9583 160.458 30.3958 160.438 30.0625C160.417 29.7292 160.406 29.4375 160.406 29.1875C160.406 28.9792 160.51 28.7708 160.719 28.5625C160.927 28.3542 161.198 28.1667 161.531 28C161.865 27.8333 162.219 27.6979 162.594 27.5938C162.99 27.4688 163.365 27.4062 163.719 27.4062C164.073 27.4062 164.354 27.5 164.562 27.6875C164.771 27.875 164.875 28.2083 164.875 28.6875V33.2812ZM170.969 30.1562C170.094 30.1562 169.281 30.4583 168.531 31.0625C167.802 31.6667 167.167 32.4479 166.625 33.4062C166.104 34.3438 165.688 35.3854 165.375 36.5312C165.083 37.6771 164.938 38.7917 164.938 39.875V43.4688C164.938 44.5938 165.083 45.6146 165.375 46.5312C165.688 47.4479 166.094 48.2292 166.594 48.875C167.094 49.5208 167.677 50.0208 168.344 50.375C169.031 50.7083 169.75 50.875 170.5 50.875C172.271 50.875 173.604 49.9583 174.5 48.125C175.417 46.2917 175.875 43.4167 175.875 39.5C175.875 38.1667 175.781 36.9271 175.594 35.7812C175.406 34.6354 175.115 33.6458 174.719 32.8125C174.323 31.9792 173.812 31.3333 173.188 30.875C172.562 30.3958 171.823 30.1562 170.969 30.1562ZM204.031 45.25C204.031 46.4375 204.135 47.4375 204.344 48.25C204.552 49.0625 204.917 49.4688 205.438 49.4688C205.75 49.4688 206.083 49.3229 206.438 49.0312C206.812 48.7188 207.24 48.2188 207.719 47.5312C208.198 46.8438 208.74 45.9583 209.344 44.875C209.969 43.7708 210.677 42.4271 211.469 40.8438L212.406 38.9062L213.688 39.875L212.75 41.8125C211.875 43.5625 211.052 45.1354 210.281 46.5312C209.531 47.9062 208.812 49.0729 208.125 50.0312C207.438 50.9896 206.76 51.7292 206.094 52.25C205.448 52.75 204.802 53 204.156 53C203.469 53 202.885 52.8125 202.406 52.4375C201.948 52.0625 201.562 51.5521 201.25 50.9062C200.938 50.2396 200.698 49.4792 200.531 48.625C200.365 47.75 200.25 46.8229 200.188 45.8438C199.688 46.8438 199.135 47.7812 198.531 48.6562C197.927 49.5104 197.292 50.2604 196.625 50.9062C195.979 51.5521 195.302 52.0625 194.594 52.4375C193.885 52.8125 193.177 53 192.469 53C191.427 53 190.417 52.7812 189.438 52.3438C188.458 51.9062 187.583 51.2396 186.812 50.3438C186.062 49.4479 185.458 48.3229 185 46.9688C184.542 45.5938 184.312 43.9792 184.312 42.125C184.312 39.9583 184.594 37.9792 185.156 36.1875C185.719 34.375 186.479 32.8229 187.438 31.5312C188.396 30.2188 189.5 29.2083 190.75 28.5C192 27.7708 193.312 27.4062 194.688 27.4062C195.521 27.4062 196.292 27.5938 197 27.9688C197.708 28.3438 198.323 28.8021 198.844 29.3438C199.385 29.8646 199.833 30.4271 200.188 31.0312C200.542 31.6146 200.781 32.1146 200.906 32.5312L201.281 29.5C201.323 29.1042 201.51 28.7708 201.844 28.5C202.198 28.2292 202.583 28.0208 203 27.875C203.417 27.7083 203.823 27.5938 204.219 27.5312C204.615 27.4479 204.896 27.4062 205.062 27.4062C205.312 27.4062 205.479 27.4479 205.562 27.5312C205.646 27.6146 205.688 27.7812 205.688 28.0312C205.688 28.3438 205.594 28.9792 205.406 29.9375C205.24 30.875 205.052 32.0833 204.844 33.5625C204.656 35.0208 204.469 36.7396 204.281 38.7188C204.115 40.6979 204.031 42.875 204.031 45.25ZM200.594 37C200.594 36.0417 200.448 35.1042 200.156 34.1875C199.865 33.25 199.469 32.4271 198.969 31.7188C198.469 30.9896 197.885 30.4062 197.219 29.9688C196.573 29.5312 195.885 29.3125 195.156 29.3125C194.26 29.3125 193.417 29.5729 192.625 30.0938C191.854 30.5938 191.177 31.3125 190.594 32.25C190.031 33.1667 189.583 34.2812 189.25 35.5938C188.917 36.8854 188.75 38.3125 188.75 39.875C188.75 43 189.24 45.3854 190.219 47.0312C191.198 48.6562 192.5 49.4688 194.125 49.4688C194.833 49.4688 195.562 49.1875 196.312 48.625C197.083 48.0417 197.781 47.2188 198.406 46.1562C199.052 45.0729 199.573 43.7604 199.969 42.2188C200.385 40.6771 200.594 38.9375 200.594 37ZM222.969 35.1562C223.219 34.7604 223.427 34.2708 223.594 33.6875C223.781 33.1042 223.875 32.5208 223.875 31.9375C223.875 31.2292 223.698 30.6146 223.344 30.0938C222.99 29.5729 222.354 29.3125 221.438 29.3125C220.833 29.3125 220.219 29.5312 219.594 29.9688C218.969 30.4062 218.385 31.0625 217.844 31.9375C217.323 32.8125 216.896 33.9167 216.562 35.25C216.229 36.5833 216.062 38.1458 216.062 39.9375C216.062 41.3542 216.208 42.6458 216.5 43.8125C216.792 44.9792 217.219 45.9792 217.781 46.8125C218.344 47.6458 219.021 48.3021 219.812 48.7812C220.625 49.2396 221.531 49.4688 222.531 49.4688C223.26 49.4688 224 49.2812 224.75 48.9062C225.521 48.5312 226.292 47.9479 227.062 47.1562C227.854 46.3646 228.667 45.3438 229.5 44.0938C230.333 42.8229 231.188 41.3125 232.062 39.5625L232.375 38.9062L233.656 39.875L233.344 40.5312C232.219 42.7604 231.094 44.6667 229.969 46.25C228.865 47.8333 227.771 49.125 226.688 50.125C225.604 51.125 224.542 51.8542 223.5 52.3125C222.479 52.7708 221.49 53 220.531 53C219.177 53 217.969 52.7188 216.906 52.1562C215.844 51.5938 214.948 50.8333 214.219 49.875C213.49 48.8958 212.927 47.7708 212.531 46.5C212.156 45.2083 211.969 43.8542 211.969 42.4375C211.969 40.1875 212.271 38.1458 212.875 36.3125C213.5 34.4583 214.302 32.875 215.281 31.5625C216.26 30.25 217.365 29.2292 218.594 28.5C219.823 27.7708 221.062 27.4062 222.312 27.4062C223.271 27.4062 224.073 27.5417 224.719 27.8125C225.365 28.0833 225.885 28.4271 226.281 28.8438C226.677 29.2604 226.958 29.7083 227.125 30.1875C227.292 30.6667 227.375 31.125 227.375 31.5625C227.375 32 227.281 32.4583 227.094 32.9375C226.906 33.3958 226.625 33.8333 226.25 34.25C225.896 34.6458 225.469 35.0104 224.969 35.3438C224.469 35.6562 223.906 35.8854 223.281 36.0312L222.969 35.1562ZM241.625 49.4688C242.354 49.4688 243.094 49.2812 243.844 48.9062C244.615 48.5312 245.385 47.9479 246.156 47.1562C246.948 46.3646 247.76 45.3438 248.594 44.0938C249.427 42.8229 250.281 41.3125 251.156 39.5625L251.469 38.9062L252.75 39.875L252.438 40.5312C251.312 42.7604 250.188 44.6667 249.062 46.25C247.958 47.8333 246.865 49.125 245.781 50.125C244.719 51.125 243.667 51.8542 242.625 52.3125C241.583 52.7708 240.583 53 239.625 53C238.271 53 237.062 52.7188 236 52.1562C234.938 51.5938 234.042 50.8333 233.312 49.875C232.583 48.8958 232.031 47.7708 231.656 46.5C231.26 45.2083 231.062 43.8542 231.062 42.4375C231.062 40.1875 231.375 38.1458 232 36.3125C232.604 34.4583 233.417 32.875 234.438 31.5625C235.479 30.25 236.656 29.2292 237.969 28.5C239.281 27.7708 240.646 27.4062 242.062 27.4062C243.5 27.4062 244.594 27.7708 245.344 28.5C246.115 29.2292 246.5 30.1458 246.5 31.25C246.5 32.3125 246.198 33.3125 245.594 34.25C244.99 35.1667 244.167 36.0729 243.125 36.9688C242.104 37.8438 240.917 38.7188 239.562 39.5938C238.208 40.4479 236.781 41.3333 235.281 42.25C235.427 43.3333 235.677 44.3229 236.031 45.2188C236.385 46.0938 236.833 46.8542 237.375 47.5C237.917 48.125 238.542 48.6146 239.25 48.9688C239.958 49.3021 240.75 49.4688 241.625 49.4688ZM242.594 32.1875C242.594 31.3542 242.365 30.6979 241.906 30.2188C241.469 29.7396 240.927 29.5 240.281 29.5C239.74 29.5 239.167 29.6979 238.562 30.0938C237.958 30.4688 237.406 31.0833 236.906 31.9375C236.406 32.7708 235.99 33.8438 235.656 35.1562C235.323 36.4688 235.156 38.0625 235.156 39.9375V40.6562C235.865 40.2812 236.646 39.7917 237.5 39.1875C238.375 38.5625 239.188 37.875 239.938 37.125C240.688 36.375 241.312 35.5833 241.812 34.75C242.333 33.8958 242.594 33.0417 242.594 32.1875ZM269.719 42.125C269.719 43.5417 269.5 44.9062 269.062 46.2188C268.646 47.5104 268.021 48.6667 267.188 49.6875C266.375 50.6875 265.354 51.4896 264.125 52.0938C262.917 52.6979 261.531 53 259.969 53C258.844 53 257.833 52.8229 256.938 52.4688C256.062 52.0938 255.312 51.6042 254.688 51C254.062 50.375 253.583 49.6771 253.25 48.9062C252.917 48.1146 252.75 47.3021 252.75 46.4688C252.75 45.6354 252.906 44.8646 253.219 44.1562C253.552 43.4271 253.99 42.8125 254.531 42.3125C255.094 41.7917 255.729 41.3854 256.438 41.0938C257.146 40.8021 257.896 40.6562 258.688 40.6562C259.188 40.6562 259.708 40.7188 260.25 40.8438V41.75C259.583 41.75 258.927 41.8854 258.281 42.1562C257.656 42.4271 257.094 42.8021 256.594 43.2812C256.115 43.7396 255.729 44.3021 255.438 44.9688C255.146 45.6146 255 46.3125 255 47.0625C255 48.4375 255.469 49.5417 256.406 50.375C257.365 51.1875 258.667 51.5938 260.312 51.5938C261.146 51.5938 261.906 51.4375 262.594 51.125C263.281 50.7917 263.865 50.3438 264.344 49.7812C264.844 49.1979 265.219 48.5104 265.469 47.7188C265.74 46.9271 265.875 46.0625 265.875 45.125C265.875 44.2292 265.698 43.3958 265.344 42.625C264.99 41.8542 264.521 41.125 263.938 40.4375C263.354 39.75 262.688 39.1042 261.938 38.5C261.208 37.8958 260.458 37.3229 259.688 36.7812C258.938 36.2188 258.198 35.6771 257.469 35.1562C256.74 34.6354 256.104 34.1146 255.562 33.5938L252.438 40.5312L251.156 39.5625L254.344 32.5938C253.573 31.8646 253 31.1771 252.625 30.5312C252.271 29.8646 252.094 29.0729 252.094 28.1562C252.094 27.6562 252.177 27.1875 252.344 26.75C252.531 26.2917 252.771 25.9062 253.062 25.5938C253.375 25.2604 253.729 25 254.125 24.8125C254.521 24.625 254.938 24.5312 255.375 24.5312C256.167 24.5312 256.76 24.7604 257.156 25.2188C257.552 25.6562 257.75 26.2083 257.75 26.875C257.75 27.1875 257.719 27.5208 257.656 27.875C257.594 28.2083 257.51 28.5521 257.406 28.9062C257.323 29.2396 257.229 29.5521 257.125 29.8438C257.042 30.1354 256.969 30.3854 256.906 30.5938C257.531 31.0729 258.281 31.5417 259.156 32C260.031 32.4375 260.938 32.8958 261.875 33.375C262.833 33.8542 263.781 34.375 264.719 34.9375C265.656 35.5 266.49 36.125 267.219 36.8125C267.969 37.5 268.573 38.2812 269.031 39.1562C269.49 40.0312 269.719 41.0208 269.719 42.125ZM255.438 25.9375C255.146 25.9375 254.906 26.0417 254.719 26.25C254.552 26.4375 254.469 26.6979 254.469 27.0312C254.469 27.4062 254.562 27.8229 254.75 28.2812C254.938 28.7396 255.271 29.1875 255.75 29.625C255.958 29.1875 256.115 28.7604 256.219 28.3438C256.344 27.9271 256.406 27.5104 256.406 27.0938C256.406 26.7604 256.312 26.4896 256.125 26.2812C255.958 26.0521 255.729 25.9375 255.438 25.9375Z" fill="#736363"/>
<path d="M10.7188 59.4062H272.281V62.5938H10.7188V59.4062Z" fill="#736363"/>
</g>
<defs>
<filter id="filter0_d" x="0.125" y="0.53125" width="276.156" height="76.4688" filterUnits="userSpaceOnUse" color-interpolation-filters="sRGB">
<feFlood flood-opacity="0" result="BackgroundImageFix"/>
<feColorMatrix in="SourceAlpha" type="matrix" values="0 0 0 0 0 0 0 0 0 0 0 0 0 0 0 0 0 0 127 0"/>
<feOffset dy="4"/>
<feGaussianBlur stdDeviation="2"/>
<feColorMatrix type="matrix" values="0 0 0 0 0 0 0 0 0 0 0 0 0 0 0 0 0 0 0.25 0"/>
<feBlend mode="normal" in2="BackgroundImageFix" result="effect1_dropShadow"/>
<feBlend mode="normal" in="SourceGraphic" in2="effect1_dropShadow" result="shape"/>
</filter>
</defs>
</svg>
